<svg width="20" height="20" viewBox="0 0 20 20" fill="none" xmlns="http://www.w3.org/2000/svg">
<path d="M19 16V3.25H13.1572C12.7023 1.94248 11.4607 1 10 1C8.53929 1 7.29773 1.94248 6.84282 3.25H1V16H6.625V18.25H5.125V19H14.875V18.25H13.375V16H19ZM10 1.75C11.4308 1.75 12.595 2.91418 12.595 4.34497C12.595 5.77576 11.4308 6.93994 10 6.93994C8.56921 6.93994 7.40503 5.77576 7.40503 4.34497C7.40503 2.91418 8.56921 1.75 10 1.75ZM1.75 4H6.67286C6.66118 4.11345 6.65503 4.22848 6.65503 4.34497C6.65503 6.0625 7.95651 7.48032 9.625 7.66749V8.12496H7.31128L6.45654 10.375H13.5435L12.6887 8.125H10.375V7.66753C12.0435 7.48032 13.345 6.0625 13.345 4.34501C13.345 4.22852 13.3388 4.11345 13.3271 4.00004H18.25V13.375H1.75V4ZM12.1716 8.875L12.4565 9.625H7.54346L7.82837 8.875H12.1716ZM12.625 18.25H7.375V16H12.625V18.25V18.25ZM1.75 15.25V14.125H18.25V15.25H1.75Z" fill="black" stroke="black" stroke-width="0.5"/>
<path d="M9.99987 2.7999C9.31217 2.7999 8.75244 3.35943 8.75244 4.04732C8.75244 4.73522 9.31217 5.29475 9.99987 5.29475C10.6876 5.29475 11.2473 4.73522 11.2473 4.04732C11.2473 3.35943 10.6876 2.7999 9.99987 2.7999ZM9.99987 4.50528C9.74738 4.50528 9.54192 4.29982 9.54192 4.04732C9.54192 3.79483 9.74738 3.58937 9.99987 3.58937C10.2524 3.58937 10.4578 3.79483 10.4578 4.04732C10.4578 4.29982 10.2524 4.50528 9.99987 4.50528Z" fill="black"/>
</svg>
